<svg width="472" height="935" viewBox="0 0 472 935" fill="none" xmlns="http://www.w3.org/2000/svg">
<g opacity="0.3" filter="url(#filter0_f_256_4)">
<path fill-rule="evenodd" clip-rule="evenodd" d="M301.209 352.001C290.173 386.669 264.914 413.19 242.037 441.462C222.326 465.821 201.32 487.535 176.292 506.373C148.414 527.356 122.122 556.558 87.2732 557.946C52.3115 559.339 22.9507 533.407 -5.93251 513.634C-33.0888 495.044 -52.4251 469.427 -75.8344 446.286C-107.874 414.612 -163.167 396.642 -169.434 352.001C-175.493 308.845 -131.511 275.35 -104.647 241.061C-80.8375 210.671 -54.2616 183.755 -21.5624 163.262C12.0146 142.219 48.0816 115.019 87.2732 120.785C126.401 126.54 143.038 176.499 179.088 192.779C221.116 211.758 283.755 185.58 311.836 222.192C338.703 257.222 314.604 309.919 301.209 352.001Z" fill="#82FFE8"/>
</g>
<g opacity="0.3" filter="url(#filter1_f_256_4)">
<path fill-rule="evenodd" clip-rule="evenodd" d="M329.209 609.001C318.173 643.669 292.914 670.19 270.037 698.462C250.326 722.821 229.32 744.535 204.292 763.373C176.414 784.356 150.122 813.558 115.273 814.946C80.3115 816.339 50.9507 790.407 22.0675 770.634C-5.08885 752.044 -24.4251 726.427 -47.8344 703.286C-79.8736 671.612 -135.167 653.642 -141.434 609.001C-147.493 565.845 -103.511 532.35 -76.6469 498.061C-52.8376 467.671 -26.2616 440.755 6.43753 420.262C40.0146 399.219 76.0816 372.019 115.273 377.785C154.401 383.54 171.038 433.499 207.088 449.779C249.116 468.758 311.755 442.58 339.836 479.192C366.703 514.222 342.604 566.919 329.209 609.001Z" fill="#C8FF82"/>
</g>
<defs>
<filter id="filter0_f_256_4" x="-290" y="0" width="734" height="678" filterUnits="userSpaceOnUse" color-interpolation-filters="sRGB">
<feFlood flood-opacity="0" result="BackgroundImageFix"/>
<feBlend mode="normal" in="SourceGraphic" in2="BackgroundImageFix" result="shape"/>
<feGaussianBlur stdDeviation="60" result="effect1_foregroundBlur_256_4"/>
</filter>
<filter id="filter1_f_256_4" x="-262" y="257" width="734" height="678" filterUnits="userSpaceOnUse" color-interpolation-filters="sRGB">
<feFlood flood-opacity="0" result="BackgroundImageFix"/>
<feBlend mode="normal" in="SourceGraphic" in2="BackgroundImageFix" result="shape"/>
<feGaussianBlur stdDeviation="60" result="effect1_foregroundBlur_256_4"/>
</filter>
</defs>
</svg>
