<svg width="18" height="16" viewBox="0 0 18 16" fill="none" xmlns="http://www.w3.org/2000/svg">
<path d="M17.2107 6.7531C17.134 6.30314 16.7525 5.97022 16.3075 5.97022H15.796L15.6017 3.89622C15.3942 1.67813 13.5985 0 11.4248 0H6.57608C4.40188 0 2.6067 1.67865 2.39866 3.89622L2.20484 5.97022H1.69287C1.24737 5.97022 0.866318 6.30314 0.788686 6.7531L0.0275878 11.1768C-0.0667885 11.7251 0.0844166 12.2895 0.433507 12.715C0.769405 13.1249 1.26412 13.3694 1.78167 13.3876V14.1221C1.78167 15.162 2.59452 16 3.60983 16H4.18725C5.20154 16 6.02657 15.162 6.02657 14.1221V13.3996H11.9794V14.1206C11.9794 15.1609 12.7978 16 13.8121 16H14.39C15.4043 16 16.2238 15.1609 16.2238 14.1206V13.3876C16.7413 13.3694 17.233 13.127 17.5679 12.7176C17.917 12.291 18.0661 11.7298 17.9728 11.1804L17.2107 6.7531ZM3.39063 11.6933C2.53465 11.6933 1.84052 10.9822 1.84052 10.1036C1.84052 9.22505 2.53465 8.51343 3.39063 8.51343C4.24712 8.51343 4.94175 9.22453 4.94175 10.1036C4.94175 10.9822 4.24712 11.6933 3.39063 11.6933ZM3.77727 5.97022L3.95638 4.05696C4.08678 2.66597 5.2127 1.61831 6.57608 1.61831H6.85566V2.21965C6.85566 2.7414 7.26005 3.15703 7.76847 3.15703H10.2324C10.7408 3.15703 11.1523 2.7414 11.1523 2.21965V1.61883H11.4248C12.7882 1.61883 13.9141 2.66649 14.044 4.05748L14.2236 5.97074L3.77727 5.97022ZM14.6082 11.6933C13.7522 11.6933 13.0581 10.9822 13.0581 10.1036C13.0581 9.22505 13.7522 8.51343 14.6082 8.51343C15.4647 8.51343 16.1593 9.22453 16.1593 10.1036C16.1593 10.9822 15.4647 11.6933 14.6082 11.6933Z" fill="#888B97"/>
</svg>
