<svg width="16" height="16" viewBox="0 0 16 16" fill="none" xmlns="http://www.w3.org/2000/svg">
<path d="M14 7.22126V13C13.9999 13.1812 13.9508 13.3591 13.8579 13.5147C13.765 13.6703 13.6317 13.7979 13.4723 13.8839C13.3278 13.9622 13.1657 14.0021 13.0014 13.9999H9.99782C9.86521 13.9999 9.73803 13.9473 9.64426 13.8535C9.5505 13.7597 9.49782 13.6326 9.49782 13.4999V10.4995C9.49782 10.3669 9.44514 10.2397 9.35137 10.146C9.2576 10.0522 9.13043 9.99951 8.99782 9.99951H6.99782C6.86521 9.99951 6.73803 10.0522 6.64426 10.146C6.5505 10.2397 6.49782 10.3669 6.49782 10.4995V13.4999C6.49782 13.6326 6.44514 13.7597 6.35137 13.8535C6.2576 13.9473 6.13043 13.9999 5.99782 13.9999H3.00013C2.85836 14.0003 2.71816 13.9704 2.5889 13.9121C2.45965 13.8539 2.34434 13.7687 2.25069 13.6623C2.08631 13.4721 1.99714 13.2285 2.00001 12.9771V7.2212C2.00011 7.08187 2.02928 6.9441 2.08564 6.81669C2.142 6.68927 2.22431 6.57501 2.32732 6.4812L7.32688 1.93539C7.51053 1.76717 7.75053 1.67385 7.99957 1.67383C8.24862 1.6738 8.48864 1.76708 8.67232 1.93526L13.6728 6.48126C13.7757 6.57509 13.858 6.68935 13.9144 6.81677C13.9707 6.94418 13.9999 7.08194 14 7.22126Z" fill="#1D4ED8"/>
</svg>
